# xmcd
# Track frame offsets:
# 150
# 15933
# 37339
# 55346
# 71925
# 96070
# 117228
# 134416
# 147268
# 163576
# 181515
# 202453
# 217424
# 231652
# 247269
# 268574
# 285249
# 298629
# 312854
# 329636
#
# Disc length: 4653 seconds
# Revision: 3
# Processed by: cddbd v1.5.2PL0 Copyright (c) Steve Scherf et al.
# Submitted via: VisiTrax 2.11.3.279 - For more info visit www.synapsa.com
#
DISCID=49122b14
DTITLE=Various Artist - Now That's What I Call Country
DYEAR=2008
DGENRE=Country
TTITLE0=Carrie Underwood - All-American Girl
TTITLE1=Rascal Flatts - Winner At A Losing Game
TTITLE2=Gary Allan - Watching Airplanes
TTITLE3=Reba McEntire - Of You, Because
TTITLE4=Keith Urban - Everybody
TTITLE5=Sugarland - Stay
TTITLE6=Lady Antebellum - Love Don't Live Here
TTITLE7=Taylor Swift - Picture To Burn
TTITLE8=Dierks Bentley - Trying To Stop Your Leaving
TTITLE9=Luke Bryan - All My Friends Say
TTITLE10=Brad Paisley - Letter To Me
TTITLE11=George Strait - I Saw God Today
TTITLE12=Julianne Hough - That Song In My Head
TTITLE13=Sara Evans - As If
TTITLE14=Kenny Chesney - Don't Blink
TTITLE15=Trace Adkins - You're Gonna Miss This
TTITLE16=Chris Cagle - What Kinda Gone
TTITLE17=Kellie Pickler - Things That Never Cross A Man's Mind
TTITLE18=Josh Turner - Another Try
TTITLE19=Jason Michael Carroll - Alyssa Lies
EXTD=Must export to Gigbuilder
EXTT0=
EXTT1=
EXTT2=
EXTT3=
EXTT4=
EXTT5=
EXTT6=
EXTT7=
EXTT8=
EXTT9=
EXTT10=
EXTT11=
EXTT12=
EXTT13=
EXTT14=
EXTT15=
EXTT16=
EXTT17=
EXTT18=
EXTT19=
PLAYORDER=
